{"accessors" : [{"bufferView" : 0, "byteOffset" : 0, "componentType" : 5123, "count" : 39804, "type" : "SCALAR", "max" : [33156], "min" : [0]}, {"bufferView" : 1, "byteOffset" : 0, "componentType" : 5126, "count" : 33157, "type" : "VEC3", "max" : [22.764394760131836, 30.226974487304688, 24.373964309692383], "min" : [-16.26863670349121, -3.6274800300598145, -106.47917175292969], "name" : "POSITION"}, {"bufferView" : 1, "byteOffset" : 12, "componentType" : 5126, "count" : 33157, "type" : "VEC2", "max" : [1.005627989768982, 1], "min" : [-0.005628000013530254, -0.08334803581237793], "name" : "TEXCOORD_0"}], "asset" : {"generator" : "Aspose.3D 24.1.0", "version" : "2.0"}, "buffers" : [{"uri" : "data:application/octet-stream;base64,", "byteLength" : 875696}], "bufferViews" : [{"buffer" : 0, "byteOffset" : 0, "byteLength" : 79608, "target" : 34963}, {"buffer" : 0, "byteOffset" : 79612, "byteLength" : 796080, "byteStride" : 20, "target" : 34962}], "meshes" : [{"primitives" : [{"attributes" : {"POSITION" : 1, "TEXCOORD_0" : 2}, "indices" : 0, "mode" : 4}], "name" : ""}], "nodes" : [{"mesh" : 0, "name" : ""}], "scene" : 0, "scenes" : [{"nodes" : [0]}]}